<svg xmlns="http://www.w3.org/2000/svg" width="56" height="56" viewBox="0 0 56 56"><g class="weights_image" id="node-693" stroke="none"><rect x="0" y="0" width="2" height="2" fill="#000008"/><rect x="2" y="0" width="2" height="2" fill="#000019"/><rect x="4" y="0" width="2" height="2" fill="#080808"/><rect x="6" y="0" width="2" height="2" fill="#000004"/><rect x="8" y="0" width="2" height="2" fill="#000005"/><rect x="10" y="0" width="2" height="2" fill="#1a1a1a"/><rect x="12" y="0" width="2" height="2" fill="#010101"/><rect x="14" y="0" width="2" height="2" fill="#0f0f0f"/><rect x="16" y="0" width="2" height="2" fill="#000015"/><rect x="18" y="0" width="2" height="2" fill="#111111"/><rect x="20" y="0" width="2" height="2" fill="#000009"/><rect x="22" y="0" width="2" height="2" fill="#141414"/><rect x="24" y="0" width="2" height="2" fill="#1b1b1b"/><rect x="26" y="0" width="2" height="2" fill="#000014"/><rect x="28" y="0" width="2" height="2" fill="#000025"/><rect x="30" y="0" width="2" height="2" fill="#121212"/><rect x="32" y="0" width="2" height="2" fill="#000017"/><rect x="34" y="0" width="2" height="2" fill="#000013"/><rect x="36" y="0" width="2" height="2" fill="#0b0b0b"/><rect x="38" y="0" width="2" height="2" fill="#00000c"/><rect x="40" y="0" width="2" height="2" fill="#00000a"/><rect x="42" y="0" width="2" height="2" fill="#000011"/><rect x="44" y="0" width="2" height="2" fill="#00001f"/><rect x="46" y="0" width="2" height="2" fill="#0b0b0b"/><rect x="48" y="0" width="2" height="2" fill="#050505"/><rect x="50" y="0" width="2" height="2" fill="#0f0f0f"/><rect x="52" y="0" width="2" height="2" fill="#00001c"/><rect x="54" y="0" width="2" height="2" fill="#0e0e0e"/><rect x="0" y="2" width="2" height="2" fill="#141414"/><rect x="2" y="2" width="2" height="2" fill="#000012"/><rect x="4" y="2" width="2" height="2" fill="#131313"/><rect x="6" y="2" width="2" height="2" fill="#0f0f0f"/><rect x="8" y="2" width="2" height="2" fill="#000003"/><rect x="10" y="2" width="2" height="2" fill="#0d0d0d"/><rect x="12" y="2" width="2" height="2" fill="#000018"/><rect x="14" y="2" width="2" height="2" fill="#00002f"/><rect x="16" y="2" width="2" height="2" fill="#000011"/><rect x="18" y="2" width="2" height="2" fill="#0c0c0c"/><rect x="20" y="2" width="2" height="2" fill="#000004"/><rect x="22" y="2" width="2" height="2" fill="#00001e"/><rect x="24" y="2" width="2" height="2" fill="#000022"/><rect x="26" y="2" width="2" height="2" fill="#00001f"/><rect x="28" y="2" width="2" height="2" fill="#161616"/><rect x="30" y="2" width="2" height="2" fill="#0a0a0a"/><rect x="32" y="2" width="2" height="2" fill="#00004e"/><rect x="34" y="2" width="2" height="2" fill="#00005b"/><rect x="36" y="2" width="2" height="2" fill="#0e0e0e"/><rect x="38" y="2" width="2" height="2" fill="#000019"/><rect x="40" y="2" width="2" height="2" fill="#000006"/><rect x="42" y="2" width="2" height="2" fill="#000011"/><rect x="44" y="2" width="2" height="2" fill="#111111"/><rect x="46" y="2" width="2" height="2" fill="#000011"/><rect x="48" y="2" width="2" height="2" fill="#000016"/><rect x="50" y="2" width="2" height="2" fill="#000012"/><rect x="52" y="2" width="2" height="2" fill="#00001b"/><rect x="54" y="2" width="2" height="2" fill="#1d1d1d"/><rect x="0" y="4" width="2" height="2" fill="#161616"/><rect x="2" y="4" width="2" height="2" fill="#000018"/><rect x="4" y="4" width="2" height="2" fill="#00000b"/><rect x="6" y="4" width="2" height="2" fill="#060606"/><rect x="8" y="4" width="2" height="2" fill="#0c0c0c"/><rect x="10" y="4" width="2" height="2" fill="#181818"/><rect x="12" y="4" width="2" height="2" fill="#000012"/><rect x="14" y="4" width="2" height="2" fill="#00001d"/><rect x="16" y="4" width="2" height="2" fill="#00002d"/><rect x="18" y="4" width="2" height="2" fill="#494949"/><rect x="20" y="4" width="2" height="2" fill="#7e7e7e"/><rect x="22" y="4" width="2" height="2" fill="#606060"/><rect x="24" y="4" width="2" height="2" fill="#00006a"/><rect x="26" y="4" width="2" height="2" fill="#0000b2"/><rect x="28" y="4" width="2" height="2" fill="#0000ac"/><rect x="30" y="4" width="2" height="2" fill="#0000a1"/><rect x="32" y="4" width="2" height="2" fill="#0000c1"/><rect x="34" y="4" width="2" height="2" fill="#0000c3"/><rect x="36" y="4" width="2" height="2" fill="#00003b"/><rect x="38" y="4" width="2" height="2" fill="#7f7f7f"/><rect x="40" y="4" width="2" height="2" fill="#666666"/><rect x="42" y="4" width="2" height="2" fill="#101010"/><rect x="44" y="4" width="2" height="2" fill="#141414"/><rect x="46" y="4" width="2" height="2" fill="#000025"/><rect x="48" y="4" width="2" height="2" fill="#000015"/><rect x="50" y="4" width="2" height="2" fill="#171717"/><rect x="52" y="4" width="2" height="2" fill="#090909"/><rect x="54" y="4" width="2" height="2" fill="#00001c"/><rect x="0" y="6" width="2" height="2" fill="#000012"/><rect x="2" y="6" width="2" height="2" fill="#020202"/><rect x="4" y="6" width="2" height="2" fill="#565656"/><rect x="6" y="6" width="2" height="2" fill="#00001f"/><rect x="8" y="6" width="2" height="2" fill="#00005e"/><rect x="10" y="6" width="2" height="2" fill="#000002"/><rect x="12" y="6" width="2" height="2" fill="#000046"/><rect x="14" y="6" width="2" height="2" fill="#000049"/><rect x="16" y="6" width="2" height="2" fill="#000023"/><rect x="18" y="6" width="2" height="2" fill="#131313"/><rect x="20" y="6" width="2" height="2" fill="#515151"/><rect x="22" y="6" width="2" height="2" fill="#404040"/><rect x="24" y="6" width="2" height="2" fill="#000009"/><rect x="26" y="6" width="2" height="2" fill="#000015"/><rect x="28" y="6" width="2" height="2" fill="#000002"/><rect x="30" y="6" width="2" height="2" fill="#000028"/><rect x="32" y="6" width="2" height="2" fill="#000022"/><rect x="34" y="6" width="2" height="2" fill="#282828"/><rect x="36" y="6" width="2" height="2" fill="#0d0d0d"/><rect x="38" y="6" width="2" height="2" fill="#000042"/><rect x="40" y="6" width="2" height="2" fill="#00009e"/><rect x="42" y="6" width="2" height="2" fill="#0000a8"/><rect x="44" y="6" width="2" height="2" fill="#00001d"/><rect x="46" y="6" width="2" height="2" fill="#000003"/><rect x="48" y="6" width="2" height="2" fill="#858585"/><rect x="50" y="6" width="2" height="2" fill="#4c4c4c"/><rect x="52" y="6" width="2" height="2" fill="#666666"/><rect x="54" y="6" width="2" height="2" fill="#131313"/><rect x="0" y="8" width="2" height="2" fill="#101010"/><rect x="2" y="8" width="2" height="2" fill="#0a0a0a"/><rect x="4" y="8" width="2" height="2" fill="#747474"/><rect x="6" y="8" width="2" height="2" fill="#131313"/><rect x="8" y="8" width="2" height="2" fill="#00001e"/><rect x="10" y="8" width="2" height="2" fill="#080808"/><rect x="12" y="8" width="2" height="2" fill="#080808"/><rect x="14" y="8" width="2" height="2" fill="#272727"/><rect x="16" y="8" width="2" height="2" fill="#000003"/><rect x="18" y="8" width="2" height="2" fill="#000014"/><rect x="20" y="8" width="2" height="2" fill="#060606"/><rect x="22" y="8" width="2" height="2" fill="#000035"/><rect x="24" y="8" width="2" height="2" fill="#0000a6"/><rect x="26" y="8" width="2" height="2" fill="#00004f"/><rect x="28" y="8" width="2" height="2" fill="#000010"/><rect x="30" y="8" width="2" height="2" fill="#252525"/><rect x="32" y="8" width="2" height="2" fill="#000014"/><rect x="34" y="8" width="2" height="2" fill="#0f0f0f"/><rect x="36" y="8" width="2" height="2" fill="#2e2e2e"/><rect x="38" y="8" width="2" height="2" fill="#00001e"/><rect x="40" y="8" width="2" height="2" fill="#00008d"/><rect x="42" y="8" width="2" height="2" fill="#00009a"/><rect x="44" y="8" width="2" height="2" fill="#00006f"/><rect x="46" y="8" width="2" height="2" fill="#0000a3"/><rect x="48" y="8" width="2" height="2" fill="#262626"/><rect x="50" y="8" width="2" height="2" fill="#000031"/><rect x="52" y="8" width="2" height="2" fill="#3d3d3d"/><rect x="54" y="8" width="2" height="2" fill="#181818"/><rect x="0" y="10" width="2" height="2" fill="#141414"/><rect x="2" y="10" width="2" height="2" fill="#00001a"/><rect x="4" y="10" width="2" height="2" fill="#545454"/><rect x="6" y="10" width="2" height="2" fill="#000035"/><rect x="8" y="10" width="2" height="2" fill="#000090"/><rect x="10" y="10" width="2" height="2" fill="#00002e"/><rect x="12" y="10" width="2" height="2" fill="#00007f"/><rect x="14" y="10" width="2" height="2" fill="#000019"/><rect x="16" y="10" width="2" height="2" fill="#0f0f0f"/><rect x="18" y="10" width="2" height="2" fill="#4b4b4b"/><rect x="20" y="10" width="2" height="2" fill="#000027"/><rect x="22" y="10" width="2" height="2" fill="#000020"/><rect x="24" y="10" width="2" height="2" fill="#000059"/><rect x="26" y="10" width="2" height="2" fill="#000006"/><rect x="28" y="10" width="2" height="2" fill="#232323"/><rect x="30" y="10" width="2" height="2" fill="#505050"/><rect x="32" y="10" width="2" height="2" fill="#000007"/><rect x="34" y="10" width="2" height="2" fill="#515151"/><rect x="36" y="10" width="2" height="2" fill="#aaaaaa"/><rect x="38" y="10" width="2" height="2" fill="#070707"/><rect x="40" y="10" width="2" height="2" fill="#0000ad"/><rect x="42" y="10" width="2" height="2" fill="#0000ba"/><rect x="44" y="10" width="2" height="2" fill="#0000bb"/><rect x="46" y="10" width="2" height="2" fill="#00007a"/><rect x="48" y="10" width="2" height="2" fill="#000017"/><rect x="50" y="10" width="2" height="2" fill="#00005d"/><rect x="52" y="10" width="2" height="2" fill="#151515"/><rect x="54" y="10" width="2" height="2" fill="#010101"/><rect x="0" y="12" width="2" height="2" fill="#00000d"/><rect x="2" y="12" width="2" height="2" fill="#010101"/><rect x="4" y="12" width="2" height="2" fill="#000002"/><rect x="6" y="12" width="2" height="2" fill="#070707"/><rect x="8" y="12" width="2" height="2" fill="#00002d"/><rect x="10" y="12" width="2" height="2" fill="#141414"/><rect x="12" y="12" width="2" height="2" fill="#000045"/><rect x="14" y="12" width="2" height="2" fill="#00001e"/><rect x="16" y="12" width="2" height="2" fill="#656565"/><rect x="18" y="12" width="2" height="2" fill="#3b3b3b"/><rect x="20" y="12" width="2" height="2" fill="#000000"/><rect x="22" y="12" width="2" height="2" fill="#000058"/><rect x="24" y="12" width="2" height="2" fill="#000060"/><rect x="26" y="12" width="2" height="2" fill="#00001a"/><rect x="28" y="12" width="2" height="2" fill="#000014"/><rect x="30" y="12" width="2" height="2" fill="#1a1a1a"/><rect x="32" y="12" width="2" height="2" fill="#252525"/><rect x="34" y="12" width="2" height="2" fill="#797979"/><rect x="36" y="12" width="2" height="2" fill="#646464"/><rect x="38" y="12" width="2" height="2" fill="#262626"/><rect x="40" y="12" width="2" height="2" fill="#0000d6"/><rect x="42" y="12" width="2" height="2" fill="#0000e0"/><rect x="44" y="12" width="2" height="2" fill="#0000ca"/><rect x="46" y="12" width="2" height="2" fill="#00009d"/><rect x="48" y="12" width="2" height="2" fill="#000097"/><rect x="50" y="12" width="2" height="2" fill="#00009f"/><rect x="52" y="12" width="2" height="2" fill="#00001a"/><rect x="54" y="12" width="2" height="2" fill="#131313"/><rect x="0" y="14" width="2" height="2" fill="#050505"/><rect x="2" y="14" width="2" height="2" fill="#262626"/><rect x="4" y="14" width="2" height="2" fill="#2f2f2f"/><rect x="6" y="14" width="2" height="2" fill="#535353"/><rect x="8" y="14" width="2" height="2" fill="#1e1e1e"/><rect x="10" y="14" width="2" height="2" fill="#00000b"/><rect x="12" y="14" width="2" height="2" fill="#000019"/><rect x="14" y="14" width="2" height="2" fill="#3d3d3d"/><rect x="16" y="14" width="2" height="2" fill="#00002e"/><rect x="18" y="14" width="2" height="2" fill="#1f1f1f"/><rect x="20" y="14" width="2" height="2" fill="#050505"/><rect x="22" y="14" width="2" height="2" fill="#000031"/><rect x="24" y="14" width="2" height="2" fill="#000032"/><rect x="26" y="14" width="2" height="2" fill="#000078"/><rect x="28" y="14" width="2" height="2" fill="#00003e"/><rect x="30" y="14" width="2" height="2" fill="#00003a"/><rect x="32" y="14" width="2" height="2" fill="#242424"/><rect x="34" y="14" width="2" height="2" fill="#898989"/><rect x="36" y="14" width="2" height="2" fill="#494949"/><rect x="38" y="14" width="2" height="2" fill="#000005"/><rect x="40" y="14" width="2" height="2" fill="#0000f7"/><rect x="42" y="14" width="2" height="2" fill="#4200bd"/><rect x="44" y="14" width="2" height="2" fill="#0000df"/><rect x="46" y="14" width="2" height="2" fill="#0000c8"/><rect x="48" y="14" width="2" height="2" fill="#00008d"/><rect x="50" y="14" width="2" height="2" fill="#00009f"/><rect x="52" y="14" width="2" height="2" fill="#00001b"/><rect x="54" y="14" width="2" height="2" fill="#000009"/><rect x="0" y="16" width="2" height="2" fill="#060606"/><rect x="2" y="16" width="2" height="2" fill="#0c0c0c"/><rect x="4" y="16" width="2" height="2" fill="#7c7c7c"/><rect x="6" y="16" width="2" height="2" fill="#363636"/><rect x="8" y="16" width="2" height="2" fill="#7b7b7b"/><rect x="10" y="16" width="2" height="2" fill="#060606"/><rect x="12" y="16" width="2" height="2" fill="#000031"/><rect x="14" y="16" width="2" height="2" fill="#00002c"/><rect x="16" y="16" width="2" height="2" fill="#00003e"/><rect x="18" y="16" width="2" height="2" fill="#232323"/><rect x="20" y="16" width="2" height="2" fill="#0a0a0a"/><rect x="22" y="16" width="2" height="2" fill="#00003b"/><rect x="24" y="16" width="2" height="2" fill="#000074"/><rect x="26" y="16" width="2" height="2" fill="#000091"/><rect x="28" y="16" width="2" height="2" fill="#00002c"/><rect x="30" y="16" width="2" height="2" fill="#272727"/><rect x="32" y="16" width="2" height="2" fill="#828282"/><rect x="34" y="16" width="2" height="2" fill="#949494"/><rect x="36" y="16" width="2" height="2" fill="#242424"/><rect x="38" y="16" width="2" height="2" fill="#000055"/><rect x="40" y="16" width="2" height="2" fill="#1c00e3"/><rect x="42" y="16" width="2" height="2" fill="#4800b7"/><rect x="44" y="16" width="2" height="2" fill="#0000d6"/><rect x="46" y="16" width="2" height="2" fill="#00003c"/><rect x="48" y="16" width="2" height="2" fill="#00002d"/><rect x="50" y="16" width="2" height="2" fill="#000042"/><rect x="52" y="16" width="2" height="2" fill="#000024"/><rect x="54" y="16" width="2" height="2" fill="#040404"/><rect x="0" y="18" width="2" height="2" fill="#000009"/><rect x="2" y="18" width="2" height="2" fill="#050505"/><rect x="4" y="18" width="2" height="2" fill="#363636"/><rect x="6" y="18" width="2" height="2" fill="#000001"/><rect x="8" y="18" width="2" height="2" fill="#767676"/><rect x="10" y="18" width="2" height="2" fill="#000005"/><rect x="12" y="18" width="2" height="2" fill="#000021"/><rect x="14" y="18" width="2" height="2" fill="#0b0b0b"/><rect x="16" y="18" width="2" height="2" fill="#00000e"/><rect x="18" y="18" width="2" height="2" fill="#000030"/><rect x="20" y="18" width="2" height="2" fill="#000044"/><rect x="22" y="18" width="2" height="2" fill="#000014"/><rect x="24" y="18" width="2" height="2" fill="#000010"/><rect x="26" y="18" width="2" height="2" fill="#00006b"/><rect x="28" y="18" width="2" height="2" fill="#00003d"/><rect x="30" y="18" width="2" height="2" fill="#5f5f5f"/><rect x="32" y="18" width="2" height="2" fill="#dcdcdc"/><rect x="34" y="18" width="2" height="2" fill="#5c5c5c"/><rect x="36" y="18" width="2" height="2" fill="#000014"/><rect x="38" y="18" width="2" height="2" fill="#000090"/><rect x="40" y="18" width="2" height="2" fill="#0000f8"/><rect x="42" y="18" width="2" height="2" fill="#0b00f4"/><rect x="44" y="18" width="2" height="2" fill="#00008f"/><rect x="46" y="18" width="2" height="2" fill="#000000"/><rect x="48" y="18" width="2" height="2" fill="#000078"/><rect x="50" y="18" width="2" height="2" fill="#000015"/><rect x="52" y="18" width="2" height="2" fill="#000044"/><rect x="54" y="18" width="2" height="2" fill="#000022"/><rect x="0" y="20" width="2" height="2" fill="#282828"/><rect x="2" y="20" width="2" height="2" fill="#0d0d0d"/><rect x="4" y="20" width="2" height="2" fill="#3f3f3f"/><rect x="6" y="20" width="2" height="2" fill="#838383"/><rect x="8" y="20" width="2" height="2" fill="#b9b9b9"/><rect x="10" y="20" width="2" height="2" fill="#0b0b0b"/><rect x="12" y="20" width="2" height="2" fill="#343434"/><rect x="14" y="20" width="2" height="2" fill="#212121"/><rect x="16" y="20" width="2" height="2" fill="#000041"/><rect x="18" y="20" width="2" height="2" fill="#000004"/><rect x="20" y="20" width="2" height="2" fill="#0b0b0b"/><rect x="22" y="20" width="2" height="2" fill="#020202"/><rect x="24" y="20" width="2" height="2" fill="#000025"/><rect x="26" y="20" width="2" height="2" fill="#000040"/><rect x="28" y="20" width="2" height="2" fill="#464646"/><rect x="30" y="20" width="2" height="2" fill="#e4e4e4"/><rect x="32" y="20" width="2" height="2" fill="#a1a1a1"/><rect x="34" y="20" width="2" height="2" fill="#505050"/><rect x="36" y="20" width="2" height="2" fill="#000065"/><rect x="38" y="20" width="2" height="2" fill="#0000c0"/><rect x="40" y="20" width="2" height="2" fill="#0000d6"/><rect x="42" y="20" width="2" height="2" fill="#0300fc"/><rect x="44" y="20" width="2" height="2" fill="#0000ce"/><rect x="46" y="20" width="2" height="2" fill="#0000e0"/><rect x="48" y="20" width="2" height="2" fill="#0000ee"/><rect x="50" y="20" width="2" height="2" fill="#000061"/><rect x="52" y="20" width="2" height="2" fill="#00004a"/><rect x="54" y="20" width="2" height="2" fill="#171717"/><rect x="0" y="22" width="2" height="2" fill="#00000e"/><rect x="2" y="22" width="2" height="2" fill="#0b0b0b"/><rect x="4" y="22" width="2" height="2" fill="#030303"/><rect x="6" y="22" width="2" height="2" fill="#787878"/><rect x="8" y="22" width="2" height="2" fill="#949494"/><rect x="10" y="22" width="2" height="2" fill="#555555"/><rect x="12" y="22" width="2" height="2" fill="#515151"/><rect x="14" y="22" width="2" height="2" fill="#1c1c1c"/><rect x="16" y="22" width="2" height="2" fill="#272727"/><rect x="18" y="22" width="2" height="2" fill="#202020"/><rect x="20" y="22" width="2" height="2" fill="#000044"/><rect x="22" y="22" width="2" height="2" fill="#000036"/><rect x="24" y="22" width="2" height="2" fill="#000012"/><rect x="26" y="22" width="2" height="2" fill="#383838"/><rect x="28" y="22" width="2" height="2" fill="#959595"/><rect x="30" y="22" width="2" height="2" fill="#989898"/><rect x="32" y="22" width="2" height="2" fill="#464646"/><rect x="34" y="22" width="2" height="2" fill="#000016"/><rect x="36" y="22" width="2" height="2" fill="#00005c"/><rect x="38" y="22" width="2" height="2" fill="#0000a6"/><rect x="40" y="22" width="2" height="2" fill="#00007a"/><rect x="42" y="22" width="2" height="2" fill="#000098"/><rect x="44" y="22" width="2" height="2" fill="#0000a1"/><rect x="46" y="22" width="2" height="2" fill="#0000b9"/><rect x="48" y="22" width="2" height="2" fill="#0000d9"/><rect x="50" y="22" width="2" height="2" fill="#00009f"/><rect x="52" y="22" width="2" height="2" fill="#000046"/><rect x="54" y="22" width="2" height="2" fill="#646464"/><rect x="0" y="24" width="2" height="2" fill="#1a1a1a"/><rect x="2" y="24" width="2" height="2" fill="#222222"/><rect x="4" y="24" width="2" height="2" fill="#000003"/><rect x="6" y="24" width="2" height="2" fill="#0a0a0a"/><rect x="8" y="24" width="2" height="2" fill="#2f2f2f"/><rect x="10" y="24" width="2" height="2" fill="#000031"/><rect x="12" y="24" width="2" height="2" fill="#00001c"/><rect x="14" y="24" width="2" height="2" fill="#010101"/><rect x="16" y="24" width="2" height="2" fill="#00000e"/><rect x="18" y="24" width="2" height="2" fill="#000062"/><rect x="20" y="24" width="2" height="2" fill="#000000"/><rect x="22" y="24" width="2" height="2" fill="#000034"/><rect x="24" y="24" width="2" height="2" fill="#474747"/><rect x="26" y="24" width="2" height="2" fill="#5c5c5c"/><rect x="28" y="24" width="2" height="2" fill="#202020"/><rect x="30" y="24" width="2" height="2" fill="#0f0f0f"/><rect x="32" y="24" width="2" height="2" fill="#1a1a1a"/><rect x="34" y="24" width="2" height="2" fill="#000047"/><rect x="36" y="24" width="2" height="2" fill="#000030"/><rect x="38" y="24" width="2" height="2" fill="#000041"/><rect x="40" y="24" width="2" height="2" fill="#282828"/><rect x="42" y="24" width="2" height="2" fill="#2d2d2d"/><rect x="44" y="24" width="2" height="2" fill="#060606"/><rect x="46" y="24" width="2" height="2" fill="#000005"/><rect x="48" y="24" width="2" height="2" fill="#5f5f5f"/><rect x="50" y="24" width="2" height="2" fill="#757575"/><rect x="52" y="24" width="2" height="2" fill="#00000e"/><rect x="54" y="24" width="2" height="2" fill="#383838"/><rect x="0" y="26" width="2" height="2" fill="#00001c"/><rect x="2" y="26" width="2" height="2" fill="#080808"/><rect x="4" y="26" width="2" height="2" fill="#1f1f1f"/><rect x="6" y="26" width="2" height="2" fill="#00001c"/><rect x="8" y="26" width="2" height="2" fill="#000042"/><rect x="10" y="26" width="2" height="2" fill="#00005f"/><rect x="12" y="26" width="2" height="2" fill="#020202"/><rect x="14" y="26" width="2" height="2" fill="#000062"/><rect x="16" y="26" width="2" height="2" fill="#000043"/><rect x="18" y="26" width="2" height="2" fill="#000050"/><rect x="20" y="26" width="2" height="2" fill="#080808"/><rect x="22" y="26" width="2" height="2" fill="#000017"/><rect x="24" y="26" width="2" height="2" fill="#1b1b1b"/><rect x="26" y="26" width="2" height="2" fill="#191919"/><rect x="28" y="26" width="2" height="2" fill="#000013"/><rect x="30" y="26" width="2" height="2" fill="#060606"/><rect x="32" y="26" width="2" height="2" fill="#141414"/><rect x="34" y="26" width="2" height="2" fill="#000006"/><rect x="36" y="26" width="2" height="2" fill="#2f2f2f"/><rect x="38" y="26" width="2" height="2" fill="#00000b"/><rect x="40" y="26" width="2" height="2" fill="#3d3d3d"/><rect x="42" y="26" width="2" height="2" fill="#5a5a5a"/><rect x="44" y="26" width="2" height="2" fill="#0b0b0b"/><rect x="46" y="26" width="2" height="2" fill="#333333"/><rect x="48" y="26" width="2" height="2" fill="#171717"/><rect x="50" y="26" width="2" height="2" fill="#303030"/><rect x="52" y="26" width="2" height="2" fill="#0000aa"/><rect x="54" y="26" width="2" height="2" fill="#00001a"/><rect x="0" y="28" width="2" height="2" fill="#0e0e0e"/><rect x="2" y="28" width="2" height="2" fill="#000004"/><rect x="4" y="28" width="2" height="2" fill="#000000"/><rect x="6" y="28" width="2" height="2" fill="#1b1b1b"/><rect x="8" y="28" width="2" height="2" fill="#000040"/><rect x="10" y="28" width="2" height="2" fill="#000033"/><rect x="12" y="28" width="2" height="2" fill="#000004"/><rect x="14" y="28" width="2" height="2" fill="#00006b"/><rect x="16" y="28" width="2" height="2" fill="#00003c"/><rect x="18" y="28" width="2" height="2" fill="#020202"/><rect x="20" y="28" width="2" height="2" fill="#000014"/><rect x="22" y="28" width="2" height="2" fill="#000001"/><rect x="24" y="28" width="2" height="2" fill="#292929"/><rect x="26" y="28" width="2" height="2" fill="#292929"/><rect x="28" y="28" width="2" height="2" fill="#202020"/><rect x="30" y="28" width="2" height="2" fill="#272727"/><rect x="32" y="28" width="2" height="2" fill="#232323"/><rect x="34" y="28" width="2" height="2" fill="#404040"/><rect x="36" y="28" width="2" height="2" fill="#121212"/><rect x="38" y="28" width="2" height="2" fill="#2d2d2d"/><rect x="40" y="28" width="2" height="2" fill="#212121"/><rect x="42" y="28" width="2" height="2" fill="#8a8a8a"/><rect x="44" y="28" width="2" height="2" fill="#8c8c8c"/><rect x="46" y="28" width="2" height="2" fill="#8e8e8e"/><rect x="48" y="28" width="2" height="2" fill="#0f0f0f"/><rect x="50" y="28" width="2" height="2" fill="#121212"/><rect x="52" y="28" width="2" height="2" fill="#000024"/><rect x="54" y="28" width="2" height="2" fill="#000001"/><rect x="0" y="30" width="2" height="2" fill="#1e1e1e"/><rect x="2" y="30" width="2" height="2" fill="#000005"/><rect x="4" y="30" width="2" height="2" fill="#000017"/><rect x="6" y="30" width="2" height="2" fill="#202020"/><rect x="8" y="30" width="2" height="2" fill="#4a4a4a"/><rect x="10" y="30" width="2" height="2" fill="#252525"/><rect x="12" y="30" width="2" height="2" fill="#373737"/><rect x="14" y="30" width="2" height="2" fill="#000050"/><rect x="16" y="30" width="2" height="2" fill="#000061"/><rect x="18" y="30" width="2" height="2" fill="#000031"/><rect x="20" y="30" width="2" height="2" fill="#000003"/><rect x="22" y="30" width="2" height="2" fill="#505050"/><rect x="24" y="30" width="2" height="2" fill="#929292"/><rect x="26" y="30" width="2" height="2" fill="#1c1c1c"/><rect x="28" y="30" width="2" height="2" fill="#0c0c0c"/><rect x="30" y="30" width="2" height="2" fill="#616161"/><rect x="32" y="30" width="2" height="2" fill="#444444"/><rect x="34" y="30" width="2" height="2" fill="#252525"/><rect x="36" y="30" width="2" height="2" fill="#050505"/><rect x="38" y="30" width="2" height="2" fill="#4e4e4e"/><rect x="40" y="30" width="2" height="2" fill="#323232"/><rect x="42" y="30" width="2" height="2" fill="#818181"/><rect x="44" y="30" width="2" height="2" fill="#a6a6a6"/><rect x="46" y="30" width="2" height="2" fill="#838383"/><rect x="48" y="30" width="2" height="2" fill="#393939"/><rect x="50" y="30" width="2" height="2" fill="#00002a"/><rect x="52" y="30" width="2" height="2" fill="#424242"/><rect x="54" y="30" width="2" height="2" fill="#00003e"/><rect x="0" y="32" width="2" height="2" fill="#090909"/><rect x="2" y="32" width="2" height="2" fill="#000014"/><rect x="4" y="32" width="2" height="2" fill="#000029"/><rect x="6" y="32" width="2" height="2" fill="#00001a"/><rect x="8" y="32" width="2" height="2" fill="#00002b"/><rect x="10" y="32" width="2" height="2" fill="#070707"/><rect x="12" y="32" width="2" height="2" fill="#00003a"/><rect x="14" y="32" width="2" height="2" fill="#000019"/><rect x="16" y="32" width="2" height="2" fill="#131313"/><rect x="18" y="32" width="2" height="2" fill="#333333"/><rect x="20" y="32" width="2" height="2" fill="#010101"/><rect x="22" y="32" width="2" height="2" fill="#171717"/><rect x="24" y="32" width="2" height="2" fill="#2c2c2c"/><rect x="26" y="32" width="2" height="2" fill="#262626"/><rect x="28" y="32" width="2" height="2" fill="#000006"/><rect x="30" y="32" width="2" height="2" fill="#262626"/><rect x="32" y="32" width="2" height="2" fill="#1c1c1c"/><rect x="34" y="32" width="2" height="2" fill="#1a1a1a"/><rect x="36" y="32" width="2" height="2" fill="#141414"/><rect x="38" y="32" width="2" height="2" fill="#1d1d1d"/><rect x="40" y="32" width="2" height="2" fill="#000006"/><rect x="42" y="32" width="2" height="2" fill="#616161"/><rect x="44" y="32" width="2" height="2" fill="#0a0a0a"/><rect x="46" y="32" width="2" height="2" fill="#6b6b6b"/><rect x="48" y="32" width="2" height="2" fill="#646464"/><rect x="50" y="32" width="2" height="2" fill="#00006d"/><rect x="52" y="32" width="2" height="2" fill="#000027"/><rect x="54" y="32" width="2" height="2" fill="#000004"/><rect x="0" y="34" width="2" height="2" fill="#131313"/><rect x="2" y="34" width="2" height="2" fill="#222222"/><rect x="4" y="34" width="2" height="2" fill="#00001c"/><rect x="6" y="34" width="2" height="2" fill="#00000e"/><rect x="8" y="34" width="2" height="2" fill="#000010"/><rect x="10" y="34" width="2" height="2" fill="#000030"/><rect x="12" y="34" width="2" height="2" fill="#00001d"/><rect x="14" y="34" width="2" height="2" fill="#070707"/><rect x="16" y="34" width="2" height="2" fill="#000020"/><rect x="18" y="34" width="2" height="2" fill="#111111"/><rect x="20" y="34" width="2" height="2" fill="#1c1c1c"/><rect x="22" y="34" width="2" height="2" fill="#131313"/><rect x="24" y="34" width="2" height="2" fill="#000035"/><rect x="26" y="34" width="2" height="2" fill="#00001f"/><rect x="28" y="34" width="2" height="2" fill="#131313"/><rect x="30" y="34" width="2" height="2" fill="#2b2b2b"/><rect x="32" y="34" width="2" height="2" fill="#404040"/><rect x="34" y="34" width="2" height="2" fill="#262626"/><rect x="36" y="34" width="2" height="2" fill="#000008"/><rect x="38" y="34" width="2" height="2" fill="#000031"/><rect x="40" y="34" width="2" height="2" fill="#00003e"/><rect x="42" y="34" width="2" height="2" fill="#434343"/><rect x="44" y="34" width="2" height="2" fill="#202020"/><rect x="46" y="34" width="2" height="2" fill="#757575"/><rect x="48" y="34" width="2" height="2" fill="#a1a1a1"/><rect x="50" y="34" width="2" height="2" fill="#000001"/><rect x="52" y="34" width="2" height="2" fill="#7e7e7e"/><rect x="54" y="34" width="2" height="2" fill="#1b1b1b"/><rect x="0" y="36" width="2" height="2" fill="#00000d"/><rect x="2" y="36" width="2" height="2" fill="#0d0d0d"/><rect x="4" y="36" width="2" height="2" fill="#222222"/><rect x="6" y="36" width="2" height="2" fill="#000031"/><rect x="8" y="36" width="2" height="2" fill="#000046"/><rect x="10" y="36" width="2" height="2" fill="#00002e"/><rect x="12" y="36" width="2" height="2" fill="#000021"/><rect x="14" y="36" width="2" height="2" fill="#000003"/><rect x="16" y="36" width="2" height="2" fill="#00002a"/><rect x="18" y="36" width="2" height="2" fill="#151515"/><rect x="20" y="36" width="2" height="2" fill="#000013"/><rect x="22" y="36" width="2" height="2" fill="#0c0c0c"/><rect x="24" y="36" width="2" height="2" fill="#000021"/><rect x="26" y="36" width="2" height="2" fill="#242424"/><rect x="28" y="36" width="2" height="2" fill="#000000"/><rect x="30" y="36" width="2" height="2" fill="#050505"/><rect x="32" y="36" width="2" height="2" fill="#0b0b0b"/><rect x="34" y="36" width="2" height="2" fill="#010101"/><rect x="36" y="36" width="2" height="2" fill="#212121"/><rect x="38" y="36" width="2" height="2" fill="#00003e"/><rect x="40" y="36" width="2" height="2" fill="#000012"/><rect x="42" y="36" width="2" height="2" fill="#242424"/><rect x="44" y="36" width="2" height="2" fill="#343434"/><rect x="46" y="36" width="2" height="2" fill="#000012"/><rect x="48" y="36" width="2" height="2" fill="#7e7e7e"/><rect x="50" y="36" width="2" height="2" fill="#000036"/><rect x="52" y="36" width="2" height="2" fill="#2f2f2f"/><rect x="54" y="36" width="2" height="2" fill="#1e1e1e"/><rect x="0" y="38" width="2" height="2" fill="#000001"/><rect x="2" y="38" width="2" height="2" fill="#373737"/><rect x="4" y="38" width="2" height="2" fill="#000067"/><rect x="6" y="38" width="2" height="2" fill="#4a4a4a"/><rect x="8" y="38" width="2" height="2" fill="#000043"/><rect x="10" y="38" width="2" height="2" fill="#000038"/><rect x="12" y="38" width="2" height="2" fill="#000001"/><rect x="14" y="38" width="2" height="2" fill="#000001"/><rect x="16" y="38" width="2" height="2" fill="#000024"/><rect x="18" y="38" width="2" height="2" fill="#000013"/><rect x="20" y="38" width="2" height="2" fill="#000015"/><rect x="22" y="38" width="2" height="2" fill="#000005"/><rect x="24" y="38" width="2" height="2" fill="#000035"/><rect x="26" y="38" width="2" height="2" fill="#0b0b0b"/><rect x="28" y="38" width="2" height="2" fill="#282828"/><rect x="30" y="38" width="2" height="2" fill="#070707"/><rect x="32" y="38" width="2" height="2" fill="#00002f"/><rect x="34" y="38" width="2" height="2" fill="#292929"/><rect x="36" y="38" width="2" height="2" fill="#282828"/><rect x="38" y="38" width="2" height="2" fill="#000046"/><rect x="40" y="38" width="2" height="2" fill="#000025"/><rect x="42" y="38" width="2" height="2" fill="#000043"/><rect x="44" y="38" width="2" height="2" fill="#00008e"/><rect x="46" y="38" width="2" height="2" fill="#000029"/><rect x="48" y="38" width="2" height="2" fill="#181818"/><rect x="50" y="38" width="2" height="2" fill="#111111"/><rect x="52" y="38" width="2" height="2" fill="#000001"/><rect x="54" y="38" width="2" height="2" fill="#1d1d1d"/><rect x="0" y="40" width="2" height="2" fill="#000009"/><rect x="2" y="40" width="2" height="2" fill="#3c3c3c"/><rect x="4" y="40" width="2" height="2" fill="#00004c"/><rect x="6" y="40" width="2" height="2" fill="#343434"/><rect x="8" y="40" width="2" height="2" fill="#00003a"/><rect x="10" y="40" width="2" height="2" fill="#010101"/><rect x="12" y="40" width="2" height="2" fill="#262626"/><rect x="14" y="40" width="2" height="2" fill="#171717"/><rect x="16" y="40" width="2" height="2" fill="#000030"/><rect x="18" y="40" width="2" height="2" fill="#00000b"/><rect x="20" y="40" width="2" height="2" fill="#000078"/><rect x="22" y="40" width="2" height="2" fill="#00005a"/><rect x="24" y="40" width="2" height="2" fill="#00003a"/><rect x="26" y="40" width="2" height="2" fill="#000014"/><rect x="28" y="40" width="2" height="2" fill="#121212"/><rect x="30" y="40" width="2" height="2" fill="#00000b"/><rect x="32" y="40" width="2" height="2" fill="#121212"/><rect x="34" y="40" width="2" height="2" fill="#2a2a2a"/><rect x="36" y="40" width="2" height="2" fill="#4e4e4e"/><rect x="38" y="40" width="2" height="2" fill="#00001b"/><rect x="40" y="40" width="2" height="2" fill="#000020"/><rect x="42" y="40" width="2" height="2" fill="#00007c"/><rect x="44" y="40" width="2" height="2" fill="#000084"/><rect x="46" y="40" width="2" height="2" fill="#00006f"/><rect x="48" y="40" width="2" height="2" fill="#222222"/><rect x="50" y="40" width="2" height="2" fill="#3d3d3d"/><rect x="52" y="40" width="2" height="2" fill="#3c3c3c"/><rect x="54" y="40" width="2" height="2" fill="#000000"/><rect x="0" y="42" width="2" height="2" fill="#000014"/><rect x="2" y="42" width="2" height="2" fill="#131313"/><rect x="4" y="42" width="2" height="2" fill="#828282"/><rect x="6" y="42" width="2" height="2" fill="#474747"/><rect x="8" y="42" width="2" height="2" fill="#00005d"/><rect x="10" y="42" width="2" height="2" fill="#575757"/><rect x="12" y="42" width="2" height="2" fill="#444444"/><rect x="14" y="42" width="2" height="2" fill="#232323"/><rect x="16" y="42" width="2" height="2" fill="#121212"/><rect x="18" y="42" width="2" height="2" fill="#000051"/><rect x="20" y="42" width="2" height="2" fill="#000011"/><rect x="22" y="42" width="2" height="2" fill="#00003e"/><rect x="24" y="42" width="2" height="2" fill="#00006d"/><rect x="26" y="42" width="2" height="2" fill="#000014"/><rect x="28" y="42" width="2" height="2" fill="#161616"/><rect x="30" y="42" width="2" height="2" fill="#000007"/><rect x="32" y="42" width="2" height="2" fill="#606060"/><rect x="34" y="42" width="2" height="2" fill="#5a5a5a"/><rect x="36" y="42" width="2" height="2" fill="#272727"/><rect x="38" y="42" width="2" height="2" fill="#000029"/><rect x="40" y="42" width="2" height="2" fill="#00008d"/><rect x="42" y="42" width="2" height="2" fill="#0000a7"/><rect x="44" y="42" width="2" height="2" fill="#000057"/><rect x="46" y="42" width="2" height="2" fill="#000013"/><rect x="48" y="42" width="2" height="2" fill="#757575"/><rect x="50" y="42" width="2" height="2" fill="#000010"/><rect x="52" y="42" width="2" height="2" fill="#363636"/><rect x="54" y="42" width="2" height="2" fill="#000019"/><rect x="0" y="44" width="2" height="2" fill="#202020"/><rect x="2" y="44" width="2" height="2" fill="#000017"/><rect x="4" y="44" width="2" height="2" fill="#737373"/><rect x="6" y="44" width="2" height="2" fill="#707070"/><rect x="8" y="44" width="2" height="2" fill="#2f2f2f"/><rect x="10" y="44" width="2" height="2" fill="#575757"/><rect x="12" y="44" width="2" height="2" fill="#646464"/><rect x="14" y="44" width="2" height="2" fill="#131313"/><rect x="16" y="44" width="2" height="2" fill="#060606"/><rect x="18" y="44" width="2" height="2" fill="#000009"/><rect x="20" y="44" width="2" height="2" fill="#3e3e3e"/><rect x="22" y="44" width="2" height="2" fill="#000026"/><rect x="24" y="44" width="2" height="2" fill="#00005a"/><rect x="26" y="44" width="2" height="2" fill="#000034"/><rect x="28" y="44" width="2" height="2" fill="#000039"/><rect x="30" y="44" width="2" height="2" fill="#00001b"/><rect x="32" y="44" width="2" height="2" fill="#2f2f2f"/><rect x="34" y="44" width="2" height="2" fill="#838383"/><rect x="36" y="44" width="2" height="2" fill="#565656"/><rect x="38" y="44" width="2" height="2" fill="#0a0a0a"/><rect x="40" y="44" width="2" height="2" fill="#000067"/><rect x="42" y="44" width="2" height="2" fill="#0000a1"/><rect x="44" y="44" width="2" height="2" fill="#00005e"/><rect x="46" y="44" width="2" height="2" fill="#00003b"/><rect x="48" y="44" width="2" height="2" fill="#000049"/><rect x="50" y="44" width="2" height="2" fill="#000077"/><rect x="52" y="44" width="2" height="2" fill="#1c1c1c"/><rect x="54" y="44" width="2" height="2" fill="#00000c"/><rect x="0" y="46" width="2" height="2" fill="#1f1f1f"/><rect x="2" y="46" width="2" height="2" fill="#000008"/><rect x="4" y="46" width="2" height="2" fill="#0b0b0b"/><rect x="6" y="46" width="2" height="2" fill="#797979"/><rect x="8" y="46" width="2" height="2" fill="#363636"/><rect x="10" y="46" width="2" height="2" fill="#5e5e5e"/><rect x="12" y="46" width="2" height="2" fill="#585858"/><rect x="14" y="46" width="2" height="2" fill="#4e4e4e"/><rect x="16" y="46" width="2" height="2" fill="#000015"/><rect x="18" y="46" width="2" height="2" fill="#262626"/><rect x="20" y="46" width="2" height="2" fill="#050505"/><rect x="22" y="46" width="2" height="2" fill="#080808"/><rect x="24" y="46" width="2" height="2" fill="#00002f"/><rect x="26" y="46" width="2" height="2" fill="#292929"/><rect x="28" y="46" width="2" height="2" fill="#00000e"/><rect x="30" y="46" width="2" height="2" fill="#000041"/><rect x="32" y="46" width="2" height="2" fill="#000036"/><rect x="34" y="46" width="2" height="2" fill="#393939"/><rect x="36" y="46" width="2" height="2" fill="#00000a"/><rect x="38" y="46" width="2" height="2" fill="#000024"/><rect x="40" y="46" width="2" height="2" fill="#00006c"/><rect x="42" y="46" width="2" height="2" fill="#0000bd"/><rect x="44" y="46" width="2" height="2" fill="#000076"/><rect x="46" y="46" width="2" height="2" fill="#202020"/><rect x="48" y="46" width="2" height="2" fill="#121212"/><rect x="50" y="46" width="2" height="2" fill="#090909"/><rect x="52" y="46" width="2" height="2" fill="#2e2e2e"/><rect x="54" y="46" width="2" height="2" fill="#111111"/><rect x="0" y="48" width="2" height="2" fill="#1d1d1d"/><rect x="2" y="48" width="2" height="2" fill="#00001c"/><rect x="4" y="48" width="2" height="2" fill="#080808"/><rect x="6" y="48" width="2" height="2" fill="#7e7e7e"/><rect x="8" y="48" width="2" height="2" fill="#737373"/><rect x="10" y="48" width="2" height="2" fill="#000022"/><rect x="12" y="48" width="2" height="2" fill="#232323"/><rect x="14" y="48" width="2" height="2" fill="#3d3d3d"/><rect x="16" y="48" width="2" height="2" fill="#353535"/><rect x="18" y="48" width="2" height="2" fill="#3a3a3a"/><rect x="20" y="48" width="2" height="2" fill="#000051"/><rect x="22" y="48" width="2" height="2" fill="#000062"/><rect x="24" y="48" width="2" height="2" fill="#000074"/><rect x="26" y="48" width="2" height="2" fill="#646464"/><rect x="28" y="48" width="2" height="2" fill="#4f4f4f"/><rect x="30" y="48" width="2" height="2" fill="#00002a"/><rect x="32" y="48" width="2" height="2" fill="#000070"/><rect x="34" y="48" width="2" height="2" fill="#434343"/><rect x="36" y="48" width="2" height="2" fill="#1d1d1d"/><rect x="38" y="48" width="2" height="2" fill="#000003"/><rect x="40" y="48" width="2" height="2" fill="#000045"/><rect x="42" y="48" width="2" height="2" fill="#0000a0"/><rect x="44" y="48" width="2" height="2" fill="#0d0d0d"/><rect x="46" y="48" width="2" height="2" fill="#333333"/><rect x="48" y="48" width="2" height="2" fill="#00006c"/><rect x="50" y="48" width="2" height="2" fill="#00002e"/><rect x="52" y="48" width="2" height="2" fill="#000003"/><rect x="54" y="48" width="2" height="2" fill="#00001c"/><rect x="0" y="50" width="2" height="2" fill="#00000d"/><rect x="2" y="50" width="2" height="2" fill="#191919"/><rect x="4" y="50" width="2" height="2" fill="#000011"/><rect x="6" y="50" width="2" height="2" fill="#000005"/><rect x="8" y="50" width="2" height="2" fill="#5b5b5b"/><rect x="10" y="50" width="2" height="2" fill="#232323"/><rect x="12" y="50" width="2" height="2" fill="#909090"/><rect x="14" y="50" width="2" height="2" fill="#000029"/><rect x="16" y="50" width="2" height="2" fill="#00000c"/><rect x="18" y="50" width="2" height="2" fill="#1c1c1c"/><rect x="20" y="50" width="2" height="2" fill="#909090"/><rect x="22" y="50" width="2" height="2" fill="#a5a5a5"/><rect x="24" y="50" width="2" height="2" fill="#191919"/><rect x="26" y="50" width="2" height="2" fill="#181818"/><rect x="28" y="50" width="2" height="2" fill="#2e2e2e"/><rect x="30" y="50" width="2" height="2" fill="#000036"/><rect x="32" y="50" width="2" height="2" fill="#0000c6"/><rect x="34" y="50" width="2" height="2" fill="#0000aa"/><rect x="36" y="50" width="2" height="2" fill="#000059"/><rect x="38" y="50" width="2" height="2" fill="#000072"/><rect x="40" y="50" width="2" height="2" fill="#00005f"/><rect x="42" y="50" width="2" height="2" fill="#0000aa"/><rect x="44" y="50" width="2" height="2" fill="#0b0b0b"/><rect x="46" y="50" width="2" height="2" fill="#353535"/><rect x="48" y="50" width="2" height="2" fill="#00003c"/><rect x="50" y="50" width="2" height="2" fill="#000037"/><rect x="52" y="50" width="2" height="2" fill="#00002f"/><rect x="54" y="50" width="2" height="2" fill="#040404"/><rect x="0" y="52" width="2" height="2" fill="#00001a"/><rect x="2" y="52" width="2" height="2" fill="#000019"/><rect x="4" y="52" width="2" height="2" fill="#00000a"/><rect x="6" y="52" width="2" height="2" fill="#000012"/><rect x="8" y="52" width="2" height="2" fill="#161616"/><rect x="10" y="52" width="2" height="2" fill="#000030"/><rect x="12" y="52" width="2" height="2" fill="#000017"/><rect x="14" y="52" width="2" height="2" fill="#141414"/><rect x="16" y="52" width="2" height="2" fill="#00005a"/><rect x="18" y="52" width="2" height="2" fill="#0000d1"/><rect x="20" y="52" width="2" height="2" fill="#000044"/><rect x="22" y="52" width="2" height="2" fill="#00002e"/><rect x="24" y="52" width="2" height="2" fill="#000070"/><rect x="26" y="52" width="2" height="2" fill="#000064"/><rect x="28" y="52" width="2" height="2" fill="#000002"/><rect x="30" y="52" width="2" height="2" fill="#000026"/><rect x="32" y="52" width="2" height="2" fill="#00002a"/><rect x="34" y="52" width="2" height="2" fill="#000021"/><rect x="36" y="52" width="2" height="2" fill="#000067"/><rect x="38" y="52" width="2" height="2" fill="#0000a4"/><rect x="40" y="52" width="2" height="2" fill="#00007f"/><rect x="42" y="52" width="2" height="2" fill="#000011"/><rect x="44" y="52" width="2" height="2" fill="#0a0a0a"/><rect x="46" y="52" width="2" height="2" fill="#000011"/><rect x="48" y="52" width="2" height="2" fill="#131313"/><rect x="50" y="52" width="2" height="2" fill="#000002"/><rect x="52" y="52" width="2" height="2" fill="#191919"/><rect x="54" y="52" width="2" height="2" fill="#020202"/><rect x="0" y="54" width="2" height="2" fill="#1e1e1e"/><rect x="2" y="54" width="2" height="2" fill="#191919"/><rect x="4" y="54" width="2" height="2" fill="#161616"/><rect x="6" y="54" width="2" height="2" fill="#000013"/><rect x="8" y="54" width="2" height="2" fill="#000010"/><rect x="10" y="54" width="2" height="2" fill="#000005"/><rect x="12" y="54" width="2" height="2" fill="#000020"/><rect x="14" y="54" width="2" height="2" fill="#00002b"/><rect x="16" y="54" width="2" height="2" fill="#000016"/><rect x="18" y="54" width="2" height="2" fill="#00000f"/><rect x="20" y="54" width="2" height="2" fill="#00000b"/><rect x="22" y="54" width="2" height="2" fill="#00000e"/><rect x="24" y="54" width="2" height="2" fill="#000016"/><rect x="26" y="54" width="2" height="2" fill="#00005c"/><rect x="28" y="54" width="2" height="2" fill="#0000df"/><rect x="30" y="54" width="2" height="2" fill="#000090"/><rect x="32" y="54" width="2" height="2" fill="#000042"/><rect x="34" y="54" width="2" height="2" fill="#2b2b2b"/><rect x="36" y="54" width="2" height="2" fill="#0e0e0e"/><rect x="38" y="54" width="2" height="2" fill="#000028"/><rect x="40" y="54" width="2" height="2" fill="#0b0b0b"/><rect x="42" y="54" width="2" height="2" fill="#000019"/><rect x="44" y="54" width="2" height="2" fill="#00001d"/><rect x="46" y="54" width="2" height="2" fill="#00000d"/><rect x="48" y="54" width="2" height="2" fill="#000002"/><rect x="50" y="54" width="2" height="2" fill="#00000e"/><rect x="52" y="54" width="2" height="2" fill="#1a1a1a"/><rect x="54" y="54" width="2" height="2" fill="#000011"/></g></svg>